<?xml version="1.0" encoding="UTF-8"?>
<svg id="Capa_1" data-name="Capa 1" xmlns="http://www.w3.org/2000/svg" viewBox="0 0 1080 1920">
  <defs>
    <style>
      .cls-1 {
        fill: #0f0f0f;
      }

      .cls-2 {
        fill: #fff;
      }

      .cls-3 {
        fill: #ff99ba;
      }

      .cls-4 {
        fill: #37474f;
      }

      .cls-5 {
        fill: #455a64;
      }

      .cls-6 {
        fill: #ebebeb;
      }

      .cls-7 {
        fill: #ffc727;
      }

      .cls-8 {
        fill: #2d2d2d;
      }

      .cls-9, .cls-10 {
        opacity: .1;
      }

      .cls-10 {
        isolation: isolate;
      }

      .cls-11 {
        fill: #263238;
      }
    </style>
  </defs>
  <g>
    <rect class="cls-1" x=".5" y=".5" width="1079" height="1919"/>
    <path d="m1079,1v1918H1V1h1078m1-1H0v1920h1080V0h0Z"/>
  </g>
  <g id="Background_Complete" data-name="Background Complete">
    <g>
      <path class="cls-6" d="m906.37,915.81h-201.89s20.02-54.68,50.83-54.68,40.46,37.74,40.46,37.74c0,0,20.78-20.5,37.86-20.5s31.92,27.1,31.92,27.1c0,0,24.13-14.57,40.83,10.35Z"/>
      <path class="cls-6" d="m276.79,780.14h-94.35s21.08-30.54,37.69-30.54,21.52,20.36,21.52,20.36c0,0,11.72-9.5,22.58-7.81,10.86,1.69,12.56,17.99,12.56,17.99Z"/>
      <path class="cls-6" d="m743.32,631.65h-94.35s21.08-30.54,37.69-30.54,21.52,20.36,21.52,20.36c0,0,11.72-9.5,22.58-7.81,10.86,1.69,12.56,17.99,12.56,17.99Z"/>
      <path class="cls-6" d="m448.38,721.36h-183.77s25.17-56.19,52.09-59.7c26.92-3.51,39.8,41.75,39.8,41.75,0,0,17.36-16,31.02-16s24.19,21.07,24.19,21.07c0,0,27.31-14.44,36.68,12.88Z"/>
      <path class="cls-6" d="m419.48,1033.07h-183.77s25.17-56.19,52.09-59.7c26.92-3.51,39.8,41.75,39.8,41.75,0,0,17.36-16,31.02-16s24.19,21.07,24.19,21.07c0,0,27.31-14.44,36.68,12.88Z"/>
    </g>
  </g>
  <g id="Floor">
    <polygon class="cls-11" points="185.54 1159.49 275.26 1159.05 364.97 1158.9 544.41 1158.6 723.84 1158.89 813.56 1159.05 903.27 1159.49 813.56 1159.93 723.84 1160.08 544.41 1160.38 364.97 1160.08 275.26 1159.92 185.54 1159.49"/>
  </g>
  <g id="Plants">
    <g>
      <g>
        <g>
          <path class="cls-7" d="m855.44,1109.36c-6.01-7.75-12.84-16.3-12.42-26.6.39-9.51,3.58-20.04,12.31-25.1,2.49-1.44,4.31-1.94,5.11,1.26,1.22,4.88-.86,10.82-1.91,15.56-1.36,6.15-2.34,12.26-2.53,18.57-.13,4.39.18,8.79.16,13.19,0,.55,0,1.1-.02,1.66,0,.21,0,.42-.01.63.05.08.1.16.16.23.1.16.12.32.06.45-.02.06-.05.11-.09.16-.2.22-.58.29-.81-.02Z"/>
          <path class="cls-2" d="m856.25,1109.37c-4.91-7.08-10.66-14.4-9.94-23.41.34-4.17,1.59-8.34,3.22-12.17.73-1.76,2.91-7,5.2-7.12,4.13-.21-1.39,16.41-1.66,18.35-1.01,7.31.44,14.47,3.09,21.22,0,.55,0,1.1-.02,1.66-2.05-4.7-3.46-9.69-3.89-14.8-.61-7.1,1.78-13.01,3.07-19.83.28-1.48,1.43-6.15-1.1-5.77-1.67.25-3.83,5.35-4.29,6.45-1.53,3.64-2.71,7.6-3.08,11.54-.86,9.08,4.72,16.47,9.5,23.73-.02.06-.05.11-.09.16Z"/>
        </g>
        <g>
          <path class="cls-7" d="m853.75,1117.24c-.35.15-.7.31-1.06.47-.01,0-.02,0-.04,0-.1.04-.19.03-.27-.02-.17-.11-.24-.37-.14-.53.03-.06.1-.11.19-.14.05-.02.1-.03.15-.05.11-.04.22-.07.33-.11,0,0,0-.02.01-.03.02-.02.05-.06.07-.09,4.25-5.2,9.33-9.68,13.53-14.96,4.01-5.03,7.67-10.34,12.07-15.06,2.77-2.97,17.38-16.9,20.51-8.29,1.38,3.82-1.64,9.29-3.52,12.47-2.52,4.26-5.92,7.93-9.77,11.03-9.52,7.64-21.14,10.5-32.07,15.32Z"/>
          <path class="cls-2" d="m875.61,1104.99c3.76-2.58,7.29-5.53,10.19-9.07,1.01-1.22,5.87-7.07,4.26-8.98-1.03-1.25-3.76.39-4.69.89-3.94,2.14-6.79,5.97-9.8,9.2-6.13,6.6-12.79,12.61-19.79,18.23-.5.27-1.02.53-1.51.81-.43.21-.84.45-1.25.68-.14.09-.29.15-.43.24-.11.06-.22.12-.34.19-.1.17-.03.43.14.54.32-.18.65-.34.98-.52-.24.19-.47.36-.71.55.01,0,.02,0,.03,0,.29-.14.58-.26.86-.39.07-.03.13-.06.2-.09.41-.29.8-.6,1.19-.9,6.99-3.64,14.17-6.92,20.68-11.36Zm-18.13,9.38c4.11-3.26,8.05-6.73,11.84-10.37,3.06-2.93,5.96-5.99,8.8-9.12,1.61-1.77,3.2-3.56,5.09-5.05,1.44-1.13,7.06-4.86,5.7.41-1,3.81-5.89,8.08-8.73,10.49-3.15,2.7-6.62,4.97-10.22,7.05-4.08,2.35-8.3,4.43-12.48,6.58Z"/>
        </g>
        <g>
          <path class="cls-7" d="m835,1137.23h0c-.12-.12-.23-.26-.25-.27-4.87-7.54-12.52-16.74-12.06-26.25.34-7.03,4.2-16.47,11.18-19.35,7.88-3.23,6.34,11.65,6.13,15.45-.56,9.68-4.28,30.14-4.52,30.3-.03.06-.04.12-.06.19,0,.01-.01.02-.01.03-.07.15-.24.04-.4-.09Z"/>
          <path class="cls-2" d="m835.39,1137.33c-.04-.61-.09-1.21-.12-1.83-.43-6.95-.57-13.93-.35-20.88.05-1.76,1.44-15.19-2.05-14.55-2.11.4-3.37,5.4-3.84,7.05-.82,2.95-1.15,6.03-.96,9.07.47,7.02,4.05,13.37,6.54,19.91.14.29.25.61.36.92,0,.08,0,.13.01.2h0c.15.15.32.25.39.11Zm-6.21-17.37c-.62-3.05-.7-6.23-.27-9.33.28-2.05,1.54-9.49,4.15-9.63,1.38-.08,1.24.79,1.51,2.36.12.72.19,1.46.22,2.18.08,1.8-.05,3.59-.14,5.38-.17,3.15-.25,6.28-.27,9.44-.04,5.15.15,10.3.5,15.44-1.8-5.34-4.58-10.33-5.7-15.83Z"/>
        </g>
        <g>
          <path class="cls-7" d="m859.54,1139.74c-9.66,4.14-20.45,5.17-30.75,3.2-.07-.02-.13-.04-.18-.08-.15-.11-.19-.3-.13-.47.05-.17.21-.31.44-.27.21.04.42.07.64.1,10.76-5.91,21.54-11.66,32.2-17.78,2.51-1.44,18.7-10.32,19.57-4,.53,3.9-5.42,8.47-7.99,10.68-4.12,3.56-8.8,6.46-13.8,8.61Z"/>
          <path class="cls-2" d="m870.9,1127.56c.65-.84,1.19-1.89-.06-2.39-2.39-.98-9.89,3.35-12.04,4.45-8.86,4.52-17.89,8.15-27.08,11.85-.77.31-1.55.63-2.33.95-.3,0-.61-.01-.91-.02-.06.17-.02.37.13.47.08-.02.16-.06.24-.08.4.01.82.02,1.23.01h.01c6.51.06,13.09-.99,19.22-2.91,3.94-1.24,7.71-2.89,11.31-4.91,3.31-1.86,7.94-4.33,10.28-7.41Zm-40.29,14.82c-.2.01-.39,0-.59.01.33-.11.65-.21.98-.33,7.27-2.44,14.46-5.24,21.36-8.61,3.5-1.71,6.89-3.64,10.44-5.23,1.5-.67,5.7-2.72,7.09-2.07,1.36.61-.09,1.67-.85,2.39-.55.51-1.65,1.3-2.21,1.72-10.68,7.94-23.19,11.89-36.22,12.12Z"/>
        </g>
        <path class="cls-7" d="m808.34,1159.49l-1.05-1.46c1.26-.95,2.53-1.89,3.77-2.85,5.04-3.89,10.06-7.82,15.01-11.84,2.82-2.29,5.6-4.61,8.27-7,.09-.08.18-.17.28-.24.21-.21.42-.4.65-.6s.46-.42.69-.65c5.94-5.47,11.31-11.43,15.4-18.66,1.34-2.37,2.58-4.79,3.76-7.26.11-.23.22-.48.33-.71.03-.06.06-.12.09-.19.13-.24.23-.49.35-.74.09-.19.17-.36.25-.56,3.5-7.63,6.39-15.55,9.46-23.3.87-2.22,1.76-4.45,2.66-6.65.05-.14.1-.28.16-.4.05-.17.12-.33.19-.49,3.94-9.8,7.99-19.56,11.67-29.44.13-.37.67-.11.54.25-2.4,6.61-4.64,13.27-6.92,19.93-.3.89-.62,1.77-.91,2.66-.6,1.76-1.2,3.51-1.82,5.26-1.22,3.5-2.47,6.98-3.77,10.44-3.65,9.74-7.2,19.72-12.03,28.98-.36.69-.73,1.37-1.12,2.06-.23.43-.47.86-.72,1.26-.26.49-.55.98-.84,1.46-5.09,8.56-11.9,15.2-19.39,21.38-.52.43-1.05.86-1.58,1.29-.24.19-.48.4-.73.6-.14.1-.26.21-.39.32-.17.12-.34.26-.51.41h-.01c-.12.1-.25.21-.39.31-.45.36-.91.71-1.37,1.08-5.02,3.93-10.09,7.78-15.16,11.6-1.61,1.22-3.22,2.47-4.83,3.72Z"/>
        <g>
          <path class="cls-7" d="m870.71,1048.71c2.49-7.84,9.87-20.89,19.84-19.15,4.01.69,6.61,3.81,6.6,7.88-.01,4.72-3.25,9.16-6.04,12.69-7.43,9.43-15.7,18.08-22.46,28.05-.01.1-.58.85-.72,1.07-.14.21-.44-.04-.31-.24.22-.33.44-.65.66-.98.04-9.66-.52-20.02,2.43-29.32Z"/>
          <path class="cls-2" d="m868.66,1078.24c.02-.07.07-.14.09-.21,1.24-3.01,2.67-5.89,4.25-8.71,3.29-5.85,7.22-11.33,11.23-16.76,1.55-2.09,9.33-12.03,2.88-12.72-2.72-.29-5.49,2.02-7.34,3.71-3,2.7-5.3,6.06-7.02,9.7-3.41,7.25-4.19,15.25-4.3,23.16-.02.37-.02.73-.02,1.08-.05.11-.09.21-.14.33-.03.06-.07.14-.09.21-.02.05-.02.09-.01.14.03.17.22.27.36.21.06-.02.11-.06.13-.13Zm-.03-2.33c.29-6.52.95-13.15,3.18-19.3,1.16-3.19,2.76-6.29,4.82-9.01.92-1.2,1.94-2.35,3.05-3.39.81-.77,1.71-1.53,2.65-2.15,2.07-1.39,4.88-2.14,5.95-1.1,1.34,1.28.83,2.4-.17,4.6-.33.74-.73,1.46-1.15,2.15-1.05,1.74-2.26,3.39-3.47,5.01-2.01,2.7-3.99,5.4-5.88,8.18-1.29,1.88-2.52,3.8-3.68,5.76-2.01,3.37-3.82,6.84-5.34,10.47,0-.4.03-.81.06-1.22Z"/>
        </g>
      </g>
      <g>
        <g>
          <g>
            <path class="cls-7" d="m197.35,1096.85c4.85,4.46,9.39,9.25,13.87,14.07,2.55,2.73,5.05,5.5,7.61,8.24,2.81,3.01,5.46,6.38,9.41,7.86,0,0,.01-.02.02-.01.06-.01.48.28.48.29.02.03.03.05.03.08.1.31-.2.73-.61.6-.09-.03-.18-.07-.26-.1-.04,0-.07,0-.11,0-1.16.02-2.86-.66-3.58-.83-3.24-.75-6.44-1.73-9.58-2.86-6.43-2.3-12.6-5.32-18.26-9.15-5.06-3.42-9.69-7.48-13.68-12.11-3.19-3.71-7.99-9.18-8.88-14.17-.8-4.52,5.03-3.63,7.74-2.84,6.13,1.83,11.22,6.7,15.81,10.92Z"/>
            <path class="cls-2" d="m182.65,1093.54c-1.39,1.94,3.87,7.83,6.08,10.46,3.48,4.15,7.49,7.8,11.87,10.99,7.87,5.74,16.77,9.77,26.06,12.56.37.11.75.24,1.12.34.03,0,.08,0,.11,0,.08.02.16.06.26.09.4.14.73-.28.62-.6-.74-.34-1.46-.71-2.17-1.1-.65-.35-1.27-.7-1.88-1.08-6.74-4.02-12.6-9.59-18.35-14.91-6.75-6.24-21.88-19.3-23.73-16.74Zm43.06,32.9c.94.52,1.89.99,2.84,1.43-.76-.24-1.52-.49-2.27-.75-8.11-2.71-15.96-6.18-23.07-10.96-3.99-2.67-7.73-5.75-11.08-9.21-1.8-1.87-3.49-3.82-5.04-5.88-.65-.87-4.88-6.03-3.76-7.04.79-.71,5.65,2.47,5.76,2.53.97.62,1.93,1.3,2.87,2,1.94,1.42,3.79,2.95,5.62,4.5,3.95,3.38,7.72,6.99,11.56,10.5,5.11,4.68,10.48,9.51,16.58,12.88Z"/>
          </g>
          <g>
            <path class="cls-7" d="m233.88,1076.8c4.4,8.53,5.43,18.33,5.57,27.79.07,5.07-.1,10.14-.16,15.2-.05,4.24-.4,9.16.48,13.56.03.19.07.39.12.59.28,1.26.67,2.47,1.21,3.6.04.09.03.18-.01.24.08.11.16.22.22.34.05.08-.04.19-.13.12-.1-.09-.21-.2-.32-.29,0-.01-.02-.01-.02-.02-.12,0-.22-.04-.28-.17-.02-.04-.05-.09-.07-.14-.1-.09-.21-.19-.31-.29-7.4-6.82-11.54-18.37-14.36-27.64-2.81-9.23-4.11-19.15-1.67-28.61.62-2.38,1.67-8.03,4.54-8.84,2.63-.74,4.26,2.76,5.19,4.57Z"/>
            <path class="cls-2" d="m229.98,1082.33c-2.9.48-2.29,8.45-2.2,10.4.24,5.91,1.4,11.72,2.65,17.47,2.08,9.45,4.81,18.49,9.64,26.78h.01c.03.12.07.23.1.34.11.11.21.21.31.3.02.05.04.1.07.14.06.13.17.18.29.17-.04-.16-.08-.3-.11-.45-.32-1.17-.6-2.35-.85-3.54-.04-.2-.09-.4-.12-.59-1.68-8.22-1.97-16.73-2.59-25.14-.44-5.84-1.12-11.73-2.64-17.39-.39-1.45-2.12-8.89-4.56-8.49Zm2.61,4.22c3.97,9.19,3.85,20.11,4.52,29.92.43,6.64,1.07,13.29,2.75,19.69-4.07-7.6-6.54-16.11-8.43-24.42-1.09-4.79-2.09-9.64-2.63-14.53-.31-2.63-.53-5.32-.44-7.99.04-1.2.19-3.56.6-4.76,1-2.85,2.94.52,3.62,2.09Z"/>
          </g>
          <g>
            <path class="cls-7" d="m256.84,1150.5c.08.15.05.35-.06.51.07,0,.13,0,.19,0,.1,0,.15.07.16.15.02.08-.02.16-.12.17-11.41,1.79-24.08,2.32-35.3-.75-4.73-1.29-9.29-3.26-13.37-6-2.78-1.88-8.39-5.67-8.71-9.43-.63-7.57,19.41.29,22.43,1.48,5.5,2.17,10.81,4.8,16.26,7.08,5.98,2.49,12.12,4.54,18.25,6.59.13.04.22.12.27.21Z"/>
            <path class="cls-2" d="m256.83,1150.5c-.62-.05-1.23-.11-1.84-.19-10.08-1.08-19.38-3.72-28.88-7.83-4.58-1.98-9.24-4.18-14.11-5.36-1.21-.29-5.67-1.7-4.96,1.16.38,1.48,7.71,5.72,9.71,6.66,4.57,2.15,9.47,3.56,14.4,4.52,8.22,1.62,16.83,2.22,25.24,1.74.25,0,.5-.02.73-.04,0-.08-.06-.15-.16-.15-.06,0-.12,0-.19,0,.09-.16.13-.36.05-.51Zm-21.43-.88c-4.93-.73-9.87-1.82-14.56-3.57-1.86-.69-3.69-1.5-5.47-2.41-1.38-.73-2.77-1.48-4.02-2.39-3.08-2.24-3.71-3.06-3.45-3.66.17-.37.82-.57,3.33-.16,1.59.26,3.22.8,4.71,1.37,2.17.83,4.31,1.72,6.45,2.65,4.27,1.84,8.53,3.74,12.92,5.26,6.26,2.18,12.88,3.62,19.52,4.07-6.49.12-12.96-.19-19.43-1.16Z"/>
          </g>
          <g>
            <path class="cls-7" d="m255.65,1117.74c2.84,2.98,4.59,6.88,5.89,10.74,2.6,7.76,3.52,15.97,5.57,23.88.31,1.18.64,2.36,1,3.53.04.12.82,1.42.73,1.35-.02-.02-.4-.4-1.02-1.06h0c-3.08-3.25-12.27-13.21-15.79-19.96-2.16-4.15-4.21-8.64-5.3-13.21-.5-2.19-1.43-7.15.74-8.82,2.34-1.81,6.7,1.99,8.18,3.55Z"/>
            <path class="cls-2" d="m250.98,1119.66c-3.06,1.27,3.26,14.69,4.05,16.46,2.95,6.53,6.72,12.65,11.25,18.2.5.64,1.01,1.25,1.54,1.87.63.66.99,1.04,1.01,1.06.03-.04-.67-1.23-.73-1.36-.06-.2-.12-.4-.19-.6-.29-.98-.56-1.95-.81-2.91-2-5.3-3.92-10.64-6.03-15.91-1.53-3.8-3.23-7.5-5.35-11.01-.48-.79-3.41-6.34-4.75-5.78Zm2.5,2.78c6.83,9.8,9.31,21.6,13.82,32.48.07.18.14.35.22.53-.18-.24-.39-.48-.57-.72-3.63-4.69-6.84-9.66-9.53-14.94-1.63-3.2-3.07-6.53-4.31-9.91-.65-1.79-1.51-3.75-1.9-5.62-.18-.84-.59-3.17-.03-3.46.79-.42,1.84,1,2.3,1.64Z"/>
          </g>
          <g>
            <path class="cls-7" d="m196.47,1040.74c10.75,17.95,5.28,40.98,14.8,59.46.02.04.04.06.05.09.29.56.59,1.12.92,1.68.15.27-.06.55-.29.57-.1.01-.21-.03-.28-.16-.08-.13-.16-.27-.22-.4-8.52-7.92-15.43-18.67-20.5-29.07-4.41-9.05-7.31-19.21-5.81-29.32.37-2.49.93-7.47,3.94-8.4,3.19-1,6.07,3.33,7.4,5.55Z"/>
            <path class="cls-2" d="m192.77,1047.34c-1.26.4-1.42,2.27-1.57,3.29-.39,2.53-.39,5.14-.16,7.67.44,5.24,1.95,10.34,3.9,15.21,3.3,8.19,7.4,16.5,12.71,23.73,1.2,1.64,2.45,3.23,3.8,4.75.16.19.33.37.5.56.22-.03.44-.3.3-.57-.33-.53-.6-1.06-.9-1.61-.03-.04-.05-.09-.08-.15-2.14-3.57-4-7.25-5.44-11.21-2.21-6.08-3.39-12.51-4.79-18.8-.54-2.48-3.94-24.3-8.27-22.87Zm2.83,3.67c2.2,4.69,2.9,10.03,4.02,15.05,1.14,5.07,2.21,10.15,3.42,15.2.96,3.99,2.24,7.95,3.87,11.75,1.34,3.16,2.96,6.23,4.86,9.09-2.15-2.6-4.11-5.38-5.91-8.24-.03-.04-.04-.07-.05-.11-3.2-5.11-5.91-10.56-8.42-15.97-.03-.06-.07-.14-.1-.2-2.2-4.81-4.12-9.8-5.12-15.02-.54-2.83-.84-5.72-.72-8.6.15-3.27.61-5.9,1.72-5.94.76-.02,1.8,1.61,2.44,2.99Z"/>
          </g>
        </g>
        <path class="cls-7" d="m197.8,1077.55c2.94,5.19,6.01,10.33,9.1,15.45,1.45,2.42,2.9,4.82,4.36,7.2.03.06.05.11.08.15.52.86,1.05,1.74,1.58,2.6,4.74,7.84,9.44,16.09,15.41,23.06,3.12,3.65,6.74,6.95,10.56,10.02.4.3.79.62,1.18.94h.01c.22.17.44.34.66.5.11.1.24.19.36.28,3.34,2.57,6.81,4.98,10.19,7.3,4.72,3.24,9.63,6.15,14.56,9,.14.1.28.18.44.26.22.14.45.26.67.4.12.07.23.12.35.19.21.13.42.25.63.37,1.59.91,3.17,1.84,4.75,2.78l-1.02,1.42c-5.15-2.26-10.18-5.07-14.97-8.11-.11-.06-.19-.12-.29-.19-.47-.28-.95-.58-1.4-.89-.58-.36-1.14-.72-1.71-1.11-1.37-.9-2.72-1.81-4.05-2.73-7.71-5.31-15.58-11.07-21.85-18.08-.17-.2-.34-.39-.51-.59-.08-.07-.15-.16-.22-.25-.13-.13-.25-.27-.37-.42l-.57-.69c-.34-.41-.67-.83-.99-1.25-.1-.12-.19-.25-.29-.38-5.12-6.61-9.22-14.21-13.34-21.39-.75-1.32-1.49-2.64-2.23-3.96-.41-.74-.81-1.48-1.22-2.22-.6-1.12-1.2-2.26-1.8-3.38-.03-.04-.04-.07-.05-.11-2.83-5.31-5.55-10.68-8.42-15.97-.12-.24.28-.47.42-.23Z"/>
      </g>
    </g>
  </g>
  <g id="Shadow">
    <ellipse class="cls-8" cx="544.41" cy="1261.5" rx="340.33" ry="57.5"/>
  </g>
  <g id="Character">
    <g>
      <g>
        <path class="cls-7" d="m412.12,764.87c-11.08,9.29-65.53,76.09-146.58,54.56,0,0,13.93,57.62,41.47,57.62s44.01-41.79,44.01-41.79c0,0,3.01,7.28,10.13,6.65,14.51-1.29,40.21-43.21,50.97-66.8v-10.24h0Z"/>
        <path class="cls-10" d="m412.12,764.87c-11.08,9.29-65.53,76.09-146.58,54.56,0,0,13.93,57.62,41.47,57.62s44.01-41.79,44.01-41.79c0,0,3.01,7.28,10.13,6.65,14.51-1.29,40.21-43.21,50.97-66.8v-10.24h0Z"/>
        <path class="cls-10" d="m412.12,764.87v6.72c-6.93,9.96-41.15,56.93-74.5,65.04-37.36,9.08-72.07-17.19-72.07-17.19,81.04,21.52,135.49-45.28,146.57-54.57Z"/>
      </g>
      <g>
        <path class="cls-7" d="m676.69,764.87c11.08,9.29,65.53,76.09,146.58,54.56,0,0-13.93,57.62-41.47,57.62s-44.01-41.79-44.01-41.79c0,0-3.01,7.28-10.13,6.65-14.51-1.29-40.21-43.21-50.97-66.8v-10.24h0Z"/>
        <path class="cls-10" d="m676.69,764.87c11.08,9.29,65.53,76.09,146.58,54.56,0,0-13.93,57.62-41.47,57.62s-44.01-41.79-44.01-41.79c0,0-3.01,7.28-10.13,6.65-14.51-1.29-40.21-43.21-50.97-66.8v-10.24h0Z"/>
        <path class="cls-10" d="m676.69,764.87v6.72c6.93,9.96,41.15,56.93,74.5,65.04,37.36,9.08,72.07-17.19,72.07-17.19-81.04,21.52-135.49-45.28-146.57-54.57Z"/>
      </g>
      <g>
        <path class="cls-7" d="m773.19,1260.43c-10.13-1.26-148.8-46.21-151.33-46.21s-38.4,3.16-77.46,3.16-74.92-3.16-77.46-3.16-141.19,44.95-151.31,46.21c-10.15,1.28-101.31-122.83-96.88-127.27,4.42-4.44,37.99,2.53,41.77,1.9,3.81-.63,68.39-37.99,69.02-41.17.63-3.16,10.76-82.31,21.54-144.36,10.76-62.05,33.76-155.12,60.78-184.67,27.02-29.55,93.72-46.42,132.54-46.42s105.54,16.87,132.56,46.42c27,29.55,50.02,122.62,60.78,184.67,10.76,62.05,20.89,141.21,21.54,144.36.63,3.18,65.21,40.54,69,41.17,3.81.63,37.36-6.34,41.79-1.9,4.44,4.44-86.75,128.54-96.88,127.27Z"/>
        <path class="cls-7" d="m500.19,724.52c2.72-1.31,15.32-14.91,32.4-19.55,5.9-1.6-4.97,10.78-4.97,10.78,0,0,25.32-15.23,35.52-18.92,17.03-6.15,25.49-7.44,25.49-4.62,0,6.3-26.54,18.15-31,23.21,0,0,15.75-3.81,21.06-.5s-13.93,6.67-13.93,6.67l-64.56,2.94Z"/>
      </g>
      <g>
        <g>
          <path class="cls-10" d="m496.58,874.81c1.94,9.03,2.11,18.45.88,27.69-1.25,9.24-4.12,18.42-9.1,26.49-2.51,4.01-5.47,7.76-8.88,11.05-3.49,3.21-7.31,6.03-11.43,8.32-8.31,4.44-17.5,6.88-26.68,7.54,8.96-2.13,17.6-5.27,25.28-9.95,3.76-2.46,7.32-5.17,10.47-8.33,3.13-3.17,5.88-6.7,8.2-10.5,4.75-7.56,7.63-16.22,9.4-25.08,1.7-8.89,2.33-18.05,1.86-27.24Z"/>
          <path class="cls-2" d="m442.27,829.44c-34.86,0-52.39,26.75-52.39,58,0,25.31,20.69,51.16,54.14,51.16s54.14-30.38,54.14-54.14c0-23.77-18.05-55.02-55.89-55.02Z"/>
          <path class="cls-11" d="m442.65,841.3c-27.29,0-41.01,20.94-41.01,45.41,0,19.81,16.19,40.05,42.38,40.05s42.38-23.78,42.38-42.38-14.13-43.07-43.76-43.07Z"/>
          <path class="cls-2" d="m455.28,841.73c-12.39,0-18.62,9.51-18.62,20.62,0,9,7.35,18.19,19.25,18.19s19.25-10.8,19.25-19.25c0-8.45-6.41-19.56-19.87-19.56Z"/>
        </g>
        <path class="cls-11" d="m411.27,823.02c11.95,2.2,23.89,4.5,35.81,6.83,11.93,2.33,23.87,4.56,35.78,7l-.71,2.83-65.99-18.2,1.04-4.41c21.64,3.89,43.31,7.68,64.93,11.69l-1.17,5.06-32.94-9.11-32.91-9.23,1.11-5.1,35.21,5.65,35.19,5.75-.92,4.46-68.22-18.22.53-2.84c11.81,1.5,23.59,3.24,35.39,4.84,11.8,1.62,23.59,3.27,35.37,5.02-11.86-1.06-23.71-2.22-35.56-3.41-11.85-1.2-23.71-2.28-35.54-3.58l.53-2.84,68.63,16.61-.92,4.46-35.26-5.32-35.25-5.42,1.11-5.1,32.94,9.12,32.91,9.24-1.17,5.06c-21.62-4-43.21-8.22-64.81-12.34l1.04-4.41,65.54,19.76-.71,2.83c-11.86-2.64-23.67-5.5-35.51-8.25-11.83-2.76-23.66-5.55-35.47-8.43Z"/>
      </g>
      <g>
        <g>
          <path class="cls-2" d="m542.66,753.51c-34.86,0-52.39,26.75-52.39,58,0,25.31,20.69,51.16,54.14,51.16s54.14-30.38,54.14-54.14c0-23.77-18.05-55.02-55.89-55.02Z"/>
          <path class="cls-11" d="m543.04,765.37c-27.29,0-41.01,20.94-41.01,45.41,0,19.81,16.19,40.05,42.38,40.05s42.38-23.78,42.38-42.38-14.13-43.07-43.76-43.07Z"/>
          <path class="cls-2" d="m543.79,763.36c-12.39,0-18.62,9.51-18.62,20.62,0,9,7.35,18.19,19.25,18.19s19.25-10.8,19.25-19.25c0-8.45-6.41-19.56-19.87-19.56Z"/>
        </g>
        <path class="cls-11" d="m506.95,761.94c12.15-.27,24.3-.45,36.45-.6,12.15-.14,24.3-.39,36.45-.41l-.12,2.91-68.31-4.41.12-4.53c21.98-.59,43.96-1.28,65.95-1.75l-.12,5.19-34.11-2.22-34.1-2.34.05-5.22,35.62-1.63,35.63-1.52v4.55s-70.49-3.97-70.49-3.97l-.06-2.88c11.87-.93,23.76-1.63,35.63-2.45,11.88-.81,23.76-1.59,35.65-2.27-11.83,1.37-23.67,2.64-35.51,3.89-11.84,1.23-23.67,2.59-35.53,3.71l-.06-2.88,70.58,2.31v4.55s-35.6,1.96-35.6,1.96l-35.61,1.86.05-5.22,34.1,2.24,34.1,2.36-.12,5.19c-21.99.47-43.98.73-65.96,1.09l.12-4.53,68.19,6.02-.12,2.91c-12.15-.18-24.3-.57-36.44-.86-12.15-.3-24.29-.62-36.44-1.05Z"/>
      </g>
      <g>
        <g>
          <path class="cls-10" d="m592.56,874.81c-.47,9.19.16,18.35,1.86,27.24,1.76,8.85,4.65,17.51,9.4,25.08,2.32,3.8,5.07,7.33,8.2,10.5,3.15,3.16,6.71,5.87,10.47,8.33,7.68,4.68,16.31,7.82,25.28,9.95-9.18-.66-18.37-3.1-26.68-7.54-4.12-2.29-7.94-5.11-11.43-8.32-3.41-3.29-6.36-7.04-8.88-11.05-4.98-8.08-7.85-17.26-9.1-26.49-1.23-9.24-1.06-18.66.88-27.69Z"/>
          <path class="cls-2" d="m646.86,829.44c34.86,0,52.39,26.75,52.39,58,0,25.31-20.69,51.16-54.14,51.16s-54.14-30.38-54.14-54.14c0-23.77,18.05-55.02,55.89-55.02Z"/>
          <path class="cls-11" d="m646.48,841.3c27.29,0,41.01,20.94,41.01,45.41,0,19.81-16.19,40.05-42.38,40.05s-42.38-23.78-42.38-42.38,14.13-43.07,43.76-43.07Z"/>
          <path class="cls-2" d="m633.85,841.73c12.39,0,18.62,9.51,18.62,20.62,0,9-7.35,18.19-19.25,18.19s-19.25-10.8-19.25-19.25,6.42-19.56,19.87-19.56Z"/>
        </g>
        <path class="cls-11" d="m677.55,823.02c-11.81,2.88-23.64,5.67-35.47,8.43-11.84,2.75-23.65,5.61-35.51,8.25l-.71-2.83,65.54-19.76,1.04,4.41c-21.6,4.11-43.19,8.33-64.81,12.34l-1.17-5.06,32.91-9.24,32.94-9.12,1.11,5.1-35.25,5.42-35.26,5.32-.92-4.46,68.63-16.61.53,2.84c-11.83,1.31-23.69,2.38-35.54,3.58-11.85,1.19-23.7,2.35-35.56,3.41,11.78-1.75,23.57-3.4,35.37-5.02,11.8-1.61,23.58-3.34,35.39-4.84l.53,2.84-68.22,18.22-.92-4.46,35.19-5.75,35.21-5.65,1.11,5.1-32.91,9.23-32.94,9.11-1.17-5.06c21.62-4,43.29-7.79,64.93-11.69l1.04,4.41-65.99,18.2-.71-2.83c11.9-2.44,23.85-4.67,35.78-7,11.93-2.32,23.86-4.63,35.82-6.83Z"/>
      </g>
      <g>
        <path class="cls-11" d="m600.62,961.74c-2.59,5.41-33.95-1.98-56.21-1.98-23.65,0-53.64,7.39-56.23,1.98-2.57-5.43,11.63-59.02,56.23-59.02s58.78,53.59,56.21,59.02Z"/>
        <path class="cls-3" d="m582.75,963.08c-11.41-1.12-26.22-3.31-38.33-3.31s-27.21,2.13-38.33,3.26c14.03-27.02,28.69-29.3,38.33-18.51,9.63-10.8,24.29-8.51,38.33,18.56Z"/>
        <path class="cls-2" d="m518.5,961.63c-6.26.72-12.17,1.45-17.06,1.81l4.86-18.3,7.08-1.26,5.12,17.74Z"/>
        <path class="cls-2" d="m591.08,963.69c-5.1-.17-11.79-.95-18.98-1.77l6.82-15.08,9.06.63,3.1,16.22Z"/>
        <g>
          <path class="cls-4" d="m662.65,1008.15c-3.07-15.5-8.42-29.31-16.04-41.41-7.64-12.08-17.32-22.1-29.09-30.04-8.59-5.8-17.94-10.04-28.05-12.71-.78,1.6-1.88,3.1-3.35,3.7-3.62,1.47-6.51-1.52-6.51-1.52,0,0-1.51,3.53-4.42,4.63-2.92,1.1-5.35-1.99-5.35-1.99,0,0-3.05,7.56-8.75,7.83-5.71.24-8.62-9.39-8.62-9.39,0,0-2.19,4.76-5.67,4.76s-8.75-6.67-8.75-6.67c0,0-.02-.46-.04-1.19-.84.24-1.65.5-2.47.76-13.4,4.33-25.45,11.21-36.17,20.67-10.73,9.46-19.76,21.19-27.06,35.2-7.3,14.02-12.23,29.81-14.76,47.36-2.53,17.56-2.25,34.11.82,49.61,3.05,15.52,8.4,29.31,16.02,41.41,7.64,12.1,17.27,22.03,28.92,29.81,11.64,7.79,24.91,12.75,39.8,14.89,14.63,2.1,28.7,1.08,42.19-3.09,13.49-4.18,25.61-10.98,36.34-20.45,10.74-9.44,19.76-21.19,27.06-35.2,7.32-14.02,12.23-29.81,14.76-47.36,2.53-17.57,2.27-34.09-.8-49.61Zm-53.07,41.86c-1.54,10.65-4.13,20.19-7.79,28.61-3.66,8.44-8.14,15.54-13.44,21.28-5.32,5.76-11.21,9.94-17.7,12.53-6.49,2.6-13.31,3.38-20.5,2.36-7.45-1.08-13.92-3.77-19.41-8.1-5.48-4.31-9.96-9.98-13.44-16.99-3.48-7.03-5.76-15.09-6.9-24.22-1.13-9.13-.93-19,.59-29.65,1.52-10.63,4.13-20.24,7.81-28.81,3.68-8.57,8.18-15.73,13.48-21.49,5.32-5.74,11.21-9.92,17.7-12.53,6.47-2.58,13.44-3.35,20.89-2.29,7.17,1.04,13.51,3.72,19.02,8.03,5.48,4.33,9.96,10,13.44,17.01,3.46,7.03,5.76,15.15,6.88,24.41,1.1,9.26.9,19.22-.63,29.85Z"/>
          <path class="cls-5" d="m653.12,1006.06c-3.07-15.5-8.42-29.31-16.04-41.41-7.64-12.08-17.32-22.1-29.09-30.04-8.59-5.8-17.94-10.04-28.05-12.71-.78,1.6-1.88,3.1-3.35,3.7-3.62,1.47-6.51-1.52-6.51-1.52,0,0-1.51,3.53-4.42,4.63-2.92,1.1-5.35-1.99-5.35-1.99,0,0-3.05,7.56-8.75,7.83-5.71.24-8.62-9.39-8.62-9.39,0,0-2.19,4.76-5.67,4.76s-8.75-6.67-8.75-6.67c0,0-.02-.46-.04-1.19-.84.24-1.65.5-2.47.76-13.4,4.33-25.45,11.21-36.17,20.67-10.72,9.46-19.76,21.19-27.06,35.2-7.3,14.02-12.23,29.81-14.76,47.36-2.53,17.56-2.25,34.11.82,49.61,3.05,15.52,8.4,29.31,16.02,41.41,7.64,12.1,17.27,22.03,28.92,29.81,11.64,7.79,24.91,12.75,39.8,14.89,14.63,2.1,28.7,1.08,42.19-3.09,13.49-4.18,25.61-10.98,36.34-20.45,10.74-9.44,19.76-21.19,27.06-35.2,7.32-14.02,12.23-29.81,14.76-47.36,2.53-17.57,2.27-34.09-.8-49.61Zm-53.07,41.86c-1.54,10.65-4.13,20.19-7.79,28.61-3.66,8.44-8.14,15.54-13.44,21.28-5.32,5.76-11.21,9.94-17.7,12.53-6.49,2.6-13.31,3.38-20.5,2.36-7.45-1.08-13.92-3.77-19.41-8.1-5.48-4.31-9.96-9.98-13.44-16.99-3.48-7.03-5.76-15.09-6.9-24.22-1.13-9.13-.93-19,.59-29.65,1.53-10.63,4.13-20.24,7.81-28.81,3.68-8.57,8.18-15.72,13.48-21.49,5.32-5.74,11.21-9.92,17.7-12.53,6.47-2.58,13.44-3.35,20.89-2.29,7.17,1.04,13.51,3.72,19.02,8.03,5.48,4.33,9.96,10,13.44,17.01,3.46,7.03,5.76,15.15,6.88,24.41,1.1,9.25.9,19.22-.63,29.85Z"/>
        </g>
        <path class="cls-2" d="m565.84,907.44l-4.55,25.04h-11.08l-3.16-23.42-1.37,15.4-11.29.53-3.22-20.56c4.07-1.1,8.49-1.71,13.25-1.71,8.13,0,15.24,1.79,21.42,4.72Z"/>
      </g>
      <path d="m544.39,1217.39s-.06.04-.17.11c-.11-.07-.17-.11-.17-.11h.34Z"/>
      <path d="m544.05,1217.39h.34s-.06.04-.17.11c-.11-.07-.17-.11-.17-.11Z"/>
      <g>
        <path class="cls-10" d="m455.91,1207.15s45.8,10.19,88.14,10.24c-38.88-.02-74.57-3.16-77.12-3.16s-141.17,44.94-151.3,46.21c-4.24.52-22.55-20.73-42.14-46,7.97,5.5,39.76,27.32,43.53,27.32,4.31,0,138.89-34.61,138.89-34.61Z"/>
        <path class="cls-10" d="m815.73,1213.89c-19.76,25.52-38.29,47.08-42.55,46.54-10.13-1.26-148.79-46.21-151.32-46.21s-38.42,3.16-77.47,3.16c42.36-.06,88.16-10.24,88.16-10.24,0,0,134.57,34.61,138.88,34.61,3.9,0,37.9-23.44,44.29-27.86Z"/>
      </g>
      <g>
        <path class="cls-7" d="m353.07,938.48s-54.55,65.2-52.01,115.54c2.53,50.34,47.49,85.16,107.32,85.48,0,0,25.71,3.48,35.65,0,0,0-12.22-20.26-13.49-23.43,0,0,26.91-7.28,42.11-29.44,0,0-21.39-9.81-31.27-20.9,0,0,13.23-19.63,16.08-22.16,0,0-27.23,1.9-36.72,3.8,0,0-42.11-2.53-58.57-32.92-16.46-30.39-9.09-75.96-9.09-75.96Z"/>
        <path class="cls-11" d="m319.08,1101.56c5.3,6.46,11.77,11.85,18.62,16.55,6.89,4.65,14.28,8.56,22.02,11.55,1.92.78,3.92,1.36,5.87,2.06l2.94,1.01,3.01.8,6.01,1.57,6.11,1.12,3.05.56c1.02.14,2.06.22,3.09.34l6.18.64c4.13.31,8.28.27,12.41.42h.13s.09.02.09.02c5.82.82,11.77,1.29,17.66,1.38,5.88.07,11.82-.19,17.38-1.58l-.94,2.32-7-11.6-3.42-5.86c-1.12-2.02-2.23-3.85-3.27-6.19l-.7-1.59,1.76-.57c3.98-1.29,8-2.98,11.84-4.85,3.85-1.89,7.57-4.02,11.13-6.38,3.58-2.34,6.87-5.06,9.97-7.95,3.09-2.91,5.74-6.21,8.16-9.65l.76,2.58c-2.95-1.35-5.76-2.8-8.57-4.33-2.8-1.54-5.55-3.16-8.24-4.88-5.36-3.48-10.55-7.34-14.98-12.19l-.84-.92.66-1.05c2.46-3.9,4.97-7.73,7.59-11.52,1.32-1.89,2.65-3.77,4.07-5.62,1.48-1.85,2.77-3.66,4.9-5.41l1.01,2.83c-6.12.36-12.25.81-18.36,1.37-6.11.55-12.22,1.15-18.21,2.18l-.15.02h-.08c-8.69-.27-17.06-2.1-25.08-5.08-7.98-3.02-15.48-7.43-21.77-13.21-6.27-5.8-11.23-12.93-14.65-20.67-3.41-7.77-5.38-16.08-6.22-24.45,1.21,8.33,3.49,16.5,7.05,24.06,3.6,7.54,8.68,14.35,14.94,19.8,6.26,5.45,13.58,9.63,21.4,12.4,7.79,2.75,16.13,4.37,24.28,4.46l-.23.02c6.13-1.17,12.27-1.9,18.42-2.55,6.15-.61,12.29-1.1,18.47-1.49l4.79-.31-3.78,3.14c-1.4,1.16-2.88,3.06-4.21,4.8-1.36,1.79-2.65,3.65-3.94,5.52-2.56,3.75-5.04,7.59-7.44,11.44l-.17-1.97c4.12,4.46,9.14,8.18,14.36,11.52,2.63,1.66,5.32,3.23,8.06,4.71,2.73,1.47,5.55,2.9,8.34,4.15l1.93.87-1.17,1.71c-2.54,3.72-5.4,7.22-8.69,10.27-3.28,3.03-6.76,5.85-10.49,8.26-3.71,2.44-7.58,4.62-11.57,6.54-4.01,1.91-8.05,3.6-12.37,4.97l1.06-2.16c.78,1.78,1.95,3.85,3.02,5.77l3.36,5.84,6.9,11.6,1.09,1.83-2.03.49c-6.07,1.46-12.18,1.69-18.23,1.55-6.06-.21-12.03-.79-18.03-1.75l.22.02c-4.21-.23-8.43-.27-12.62-.66l-6.27-.77c-1.04-.14-2.09-.24-3.13-.4l-3.1-.63-6.19-1.25-6.08-1.71-3.04-.87-2.97-1.08c-1.97-.74-3.97-1.39-5.9-2.25-7.76-3.27-15.1-7.45-21.91-12.36-6.78-4.92-13.07-10.6-18.1-17.29Z"/>
        <path class="cls-7" d="m317.03,994.08s-24.29,23.73-25.15,40.84c-.31,6.18,9.09-6.31,9.09-6.31,0,0-6.92,21.15-5.69,27.64,1.24,6.49,5.79-9.59,5.79-9.59l15.95-52.58Z"/>
      </g>
      <g>
        <path class="cls-7" d="m735.08,935.1s40.14,74.93,27.42,123.7c-12.72,48.77-63.82,73.72-122.47,61.86,0,0-25.88-1.82-34.9-7.25,0,0,16.09-17.35,17.97-20.19,0,0-24.87-12.6-35.23-37.39,0,0,22.94-5.26,34.87-14.1,0,0-8.96-21.91-11.23-24.97,0,0,26.27,7.4,35.18,11.19,0,0,41.74,6.09,64.04-20.32,22.3-26.41,24.35-72.53,24.35-72.53Z"/>
        <path class="cls-11" d="m746.24,1090.71c-5.91,7.68-13.55,13.91-21.78,19.02-8.27,5.1-17.33,8.9-26.73,11.45-9.42,2.48-19.18,3.68-28.93,3.69-9.75.04-19.49-1.01-29.04-2.91l.22.03c-6.06-.28-12.04-.93-18.01-1.96-5.95-1.09-11.89-2.56-17.53-5.22l-1.89-.89,1.44-1.57,9.12-9.95,4.48-5.03c1.44-1.66,3.01-3.44,4.13-5.03l.6,2.33c-3.95-2.21-7.56-4.69-11.1-7.38-3.51-2.69-6.87-5.6-10-8.76-3.13-3.15-6.04-6.55-8.6-10.22-2.57-3.66-4.75-7.63-6.41-11.83l-.75-1.92,2.03-.45c2.99-.66,6.03-1.48,9-2.37,2.98-.9,5.94-1.88,8.85-2.97,5.8-2.21,11.47-4.83,16.41-8.36l-.57,1.89c-1.56-4.26-3.21-8.52-4.95-12.71-.87-2.09-1.77-4.18-2.73-6.21-.48-1.01-.98-2.02-1.5-2.99-.52-.95-1.1-1.93-1.65-2.57l-3.36-3.92,4.92,1.36c5.96,1.65,11.88,3.37,17.78,5.22,5.88,1.89,11.74,3.85,17.51,6.24l-.22-.07c7.99,1.57,16.49,1.68,24.68.57,8.21-1.14,16.25-3.69,23.48-7.79,7.25-4.05,13.61-9.69,18.67-16.34,5.08-6.65,8.9-14.24,11.79-22.13-2.54,8.01-6.08,15.8-11.05,22.68-4.92,6.9-11.23,12.87-18.55,17.26-7.32,4.41-15.58,7.16-24,8.5-8.46,1.29-17.03,1.38-25.59-.14h-.08s-.14-.07-.14-.07c-5.65-2.22-11.52-4.06-17.38-5.84-5.86-1.79-11.78-3.48-17.7-5.08l1.56-2.56c.94,1.1,1.51,2.12,2.1,3.16.57,1.04,1.1,2.09,1.6,3.13,1.01,2.1,1.94,4.21,2.84,6.33,1.79,4.25,3.47,8.51,5.09,12.83l.44,1.17-1.01.73c-5.32,3.85-11.19,6.57-17.15,8.89-2.99,1.14-6.01,2.17-9.06,3.11-3.06.93-6.1,1.78-9.27,2.5l1.27-2.37c3.13,7.81,8.18,14.84,14.16,20.93,2.99,3.05,6.22,5.88,9.6,8.51,3.38,2.61,6.97,5.09,10.61,7.15l1.61.92-1.01,1.41c-1.49,2.09-2.95,3.65-4.46,5.4l-4.54,5.04-9.21,9.93-.45-2.46c5.17,2.49,10.92,3.96,16.7,5.08,5.78,1.11,11.71,1.86,17.57,2.24h.13s.08.03.08.03c9.37,2.03,18.93,3.21,28.51,3.33,9.58.17,19.17-.92,28.5-3.12,9.31-2.27,18.36-5.78,26.68-10.61,4.16-2.41,8.14-5.15,11.89-8.17,3.74-3.03,7.31-6.31,10.35-10.07Z"/>
        <path class="cls-7" d="m764.9,1033.07s5.49,19.81,2.12,30.98c-3.37,11.17-4.51-5.24-4.51-5.24,0,0-1.3,21-3.72,22.01-2.42,1.01-.95-8.7-.95-8.7l7.07-39.05Z"/>
      </g>
      <g class="cls-9">
        <path d="m271.72,1143.27c.82,14.22,30.49,16.07,35.85,1.24,5.36-14.84-36.89-19.23-35.85-1.24Z"/>
        <path d="m724.42,1219.23c-3.53,11.34,16.59,20.4,24.6,10.16,8.01-10.24-20.14-24.51-24.6-10.16Z"/>
        <path d="m587.39,1193.5c-1.35,4.87,4.41,7.37,7.06,2.68,2.65-4.69-5.35-8.84-7.06-2.68Z"/>
        <path d="m719.08,1087.04c4.95,10.37,27.67,2.71,27.16-10s-33.42-3.12-27.16,10Z"/>
        <path d="m327.33,1142.24c4.06,4.39-6.63,10.62-9.7,6.21-3.06-4.4,6.43-9.75,9.7-6.21Z"/>
        <path d="m437.66,791.57c-4.52,3.85-9.14-4.29-4.72-7.33,4.42-3.03,8.36,4.22,4.72,7.33Z"/>
        <path d="m742.56,1053.53c4.06,4.39-6.63,10.61-9.7,6.21-3.06-4.4,6.43-9.75,9.7-6.21Z"/>
        <path d="m313.47,1117.07c11.46-2.02,10.58,16.9,0,15.86-10.58-1.04-10.28-14.05,0-15.86Z"/>
        <path d="m338.78,1021.09c5.42-.96,5.01,8,0,7.5-5.01-.49-4.86-6.65,0-7.5Z"/>
        <path d="m451.91,977.22c5.42-.96,5.01,8,0,7.5-5.01-.49-4.87-6.64,0-7.5Z"/>
        <path d="m676.58,797.98c5.42-.96,5.01,8,0,7.5-5.01-.49-4.87-6.65,0-7.5Z"/>
        <path d="m343.17,1001.86c6.33-6.14,15.48,10.44,8.14,13.61-7.34,3.18-13.82-8.1-8.14-13.61Z"/>
        <path d="m718.14,919.18c8.77-.94,5.78,17.75-1.96,15.74-7.74-2.02-5.91-14.89,1.96-15.74Z"/>
        <path d="m617.72,1197.38c5.33,7.03-12.23,14.11-14.49,6.44-2.27-7.67,9.71-12.75,14.49-6.44Z"/>
        <path d="m427.03,759.58c11.46-2.02,10.58,16.9,0,15.86-10.58-1.04-10.28-14.05,0-15.86Z"/>
      </g>
      <g>
        <polygon class="cls-5" points="518.65 1238.64 525.6 1232.97 534.62 1235.8 534.62 1240.18 518.65 1238.64"/>
        <polygon class="cls-5" points="565.3 1238.38 563.54 1236.02 570.17 1236.66 569.07 1238.74 565.3 1238.38"/>
        <path class="cls-5" d="m552.66,1244.31s3.87-3.61,4.64-4.12,9.79-.26,9.66,2.06c-.13,2.32-.65,7.73-1.68,7.73h-8.24l-4.38-5.67Z"/>
        <polygon class="cls-5" points="544.93 1231.42 549.53 1229.3 554.17 1228.82 553.2 1232.73 552.19 1233.74 546.83 1233.36 544.93 1231.42"/>
        <path class="cls-5" d="m540.88,1235.24h1.4l.92,1.69h-3.53s-.92-.24-.34-.58,1.54-1.11,1.54-1.11Z"/>
      </g>
    </g>
  </g>
  <g id="_404_Error" data-name="404 Error">
    <g>
      <g>
        <path class="cls-4" d="m324.64,1266.72v-60.07h-117.72v-47.98l135.06-173.36h36.69v172.95h35.48v48.38h-35.48v60.07h-54.02Zm-63.7-108.45h69.75v-91.11l-69.75,91.11Z"/>
        <path class="cls-5" d="m314.65,1266.72v-60.07h-117.72v-47.98l135.06-173.36h36.69v172.95h35.48v48.38h-35.48v60.07h-54.02Zm-63.7-108.45h69.75v-91.11l-69.75,91.11Z"/>
      </g>
      <g>
        <path class="cls-4" d="m802.38,1266.72v-60.07h-117.72v-47.98l135.06-173.36h36.69v172.95h35.48v48.38h-35.48v60.07h-54.02Zm-63.7-108.45h69.75v-91.11l-69.75,91.11Z"/>
        <path class="cls-5" d="m792.39,1266.72v-60.07h-117.72v-47.98l135.06-173.36h36.69v172.95h35.48v48.38h-35.48v60.07h-54.02Zm-63.7-108.45h69.75v-91.11l-69.75,91.11Z"/>
      </g>
    </g>
    <g>
      <g>
        <path class="cls-2" d="m463.6,663.59c-2.78,0-5.31-.54-7.57-1.63-2.27-1.09-4.21-2.53-5.83-4.33s-2.88-3.86-3.77-6.18c-.89-2.32-1.34-4.69-1.34-7.12s.47-4.96,1.42-7.28,2.25-4.37,3.91-6.15c1.66-1.78,3.63-3.2,5.91-4.25,2.28-1.05,4.76-1.58,7.44-1.58s5.25.56,7.52,1.69c2.27,1.12,4.2,2.6,5.81,4.41,1.61,1.82,2.85,3.89,3.75,6.21s1.34,4.67,1.34,7.06c0,2.53-.46,4.95-1.39,7.25s-2.21,4.33-3.85,6.1-3.6,3.18-5.89,4.23c-2.29,1.05-4.76,1.58-7.44,1.58Zm-11.03-19.26c0,1.64.25,3.23.75,4.76s1.22,2.89,2.17,4.07c.95,1.18,2.1,2.12,3.48,2.84,1.37.71,2.93,1.07,4.68,1.07s3.36-.37,4.74-1.1c1.37-.73,2.53-1.7,3.48-2.92s1.66-2.58,2.14-4.1c.48-1.52.72-3.06.72-4.63s-.26-3.23-.77-4.76c-.52-1.53-1.25-2.89-2.19-4.07-.95-1.18-2.1-2.11-3.48-2.81s-2.92-1.04-4.63-1.04-3.37.37-4.76,1.1-2.55,1.69-3.48,2.89c-.93,1.2-1.63,2.55-2.11,4.07-.48,1.52-.72,3.06-.72,4.63Z"/>
        <path class="cls-2" d="m500.1,663.86c-2.28,0-4.33-.39-6.15-1.18s-3.36-1.85-4.63-3.18-2.24-2.88-2.92-4.63c-.68-1.75-1.02-3.59-1.02-5.51s.34-3.82,1.02-5.57c.68-1.75,1.65-3.29,2.92-4.63,1.27-1.34,2.81-2.4,4.63-3.18,1.82-.78,3.87-1.18,6.15-1.18s4.33.39,6.13,1.18c1.8.78,3.34,1.85,4.6,3.18s2.24,2.88,2.92,4.63c.68,1.75,1.02,3.61,1.02,5.57s-.34,3.76-1.02,5.51c-.68,1.75-1.64,3.29-2.89,4.63s-2.78,2.4-4.6,3.18-3.87,1.18-6.15,1.18Zm-7.33-14.5c0,1.25.19,2.38.56,3.4s.89,1.9,1.55,2.65,1.44,1.33,2.33,1.74c.89.41,1.86.62,2.89.62s2-.21,2.89-.62c.89-.41,1.67-.99,2.33-1.74s1.18-1.64,1.55-2.68c.37-1.03.56-2.18.56-3.42s-.19-2.34-.56-3.37-.89-1.93-1.55-2.68c-.66-.75-1.44-1.33-2.33-1.74-.89-.41-1.86-.62-2.89-.62s-2,.21-2.89.64c-.89.43-1.67,1.02-2.33,1.77-.66.75-1.18,1.64-1.55,2.68-.37,1.04-.56,2.16-.56,3.37Z"/>
        <path class="cls-2" d="m532.53,663.86c-2.28,0-4.33-.39-6.15-1.18s-3.36-1.85-4.63-3.18-2.24-2.88-2.92-4.63c-.68-1.75-1.02-3.59-1.02-5.51s.34-3.82,1.02-5.57c.68-1.75,1.65-3.29,2.92-4.63,1.27-1.34,2.81-2.4,4.63-3.18,1.82-.78,3.87-1.18,6.15-1.18s4.33.39,6.13,1.18c1.8.78,3.34,1.85,4.6,3.18,1.26,1.34,2.24,2.88,2.92,4.63.68,1.75,1.01,3.61,1.01,5.57s-.34,3.76-1.01,5.51c-.68,1.75-1.64,3.29-2.89,4.63s-2.78,2.4-4.6,3.18c-1.82.78-3.87,1.18-6.15,1.18Zm-7.33-14.5c0,1.25.19,2.38.56,3.4s.89,1.9,1.55,2.65,1.44,1.33,2.33,1.74c.89.41,1.86.62,2.89.62s2-.21,2.89-.62c.89-.41,1.67-.99,2.33-1.74.66-.75,1.18-1.64,1.55-2.68.37-1.03.56-2.18.56-3.42s-.19-2.34-.56-3.37-.89-1.93-1.55-2.68c-.66-.75-1.44-1.33-2.33-1.74-.89-.41-1.86-.62-2.89-.62s-2,.21-2.89.64-1.67,1.02-2.33,1.77c-.66.75-1.18,1.64-1.55,2.68-.37,1.04-.56,2.16-.56,3.37Z"/>
        <path class="cls-2" d="m568.81,663.86c-2.21,0-4.14-.49-5.78-1.47-1.64-.98-2.93-2.31-3.85-3.99v16.32h-7.17v-39.44h6.26v4.82c1.03-1.64,2.37-2.93,4.01-3.88,1.64-.95,3.53-1.42,5.67-1.42,1.89,0,3.64.38,5.24,1.15,1.61.77,2.99,1.8,4.15,3.1,1.16,1.3,2.07,2.84,2.73,4.6.66,1.77.99,3.63.99,5.59s-.3,3.94-.91,5.73c-.61,1.79-1.45,3.34-2.54,4.66-1.09,1.32-2.38,2.35-3.88,3.1-1.5.75-3.14,1.12-4.92,1.12Zm-2.41-6.1c1.07,0,2.06-.23,2.97-.7.91-.46,1.68-1.09,2.33-1.87.64-.78,1.14-1.69,1.5-2.73.36-1.03.54-2.1.54-3.21,0-1.18-.2-2.27-.59-3.29s-.93-1.9-1.63-2.65c-.7-.75-1.52-1.34-2.46-1.77s-1.97-.64-3.08-.64c-.68,0-1.37.12-2.09.35-.71.23-1.38.56-1.98.99-.61.43-1.15.93-1.63,1.5-.48.57-.85,1.2-1.1,1.87v6.58c.64,1.61,1.62,2.94,2.94,3.99,1.32,1.05,2.75,1.58,4.28,1.58Z"/>
        <path class="cls-2" d="m596.53,663.86c-2.35,0-4.65-.37-6.9-1.12-2.25-.75-4.18-1.82-5.78-3.21l2.68-4.5c1.71,1.21,3.38,2.13,5,2.76s3.24.94,4.84.94c1.43,0,2.55-.27,3.37-.8.82-.54,1.23-1.3,1.23-2.3s-.48-1.73-1.44-2.19-2.53-1-4.71-1.61c-1.82-.5-3.37-.98-4.65-1.44-1.28-.46-2.32-.99-3.1-1.58-.78-.59-1.36-1.27-1.71-2.03-.36-.77-.54-1.69-.54-2.76,0-1.43.27-2.71.83-3.85.55-1.14,1.33-2.11,2.33-2.92,1-.8,2.17-1.42,3.51-1.85,1.34-.43,2.79-.64,4.36-.64,2.1,0,4.08.3,5.91.91,1.84.61,3.52,1.59,5.06,2.94l-2.89,4.33c-1.43-1.07-2.81-1.85-4.15-2.35-1.34-.5-2.67-.75-3.99-.75-1.21,0-2.23.25-3.05.75s-1.23,1.3-1.23,2.41c0,.5.1.91.29,1.23.19.32.51.61.93.86.43.25.99.49,1.69.72.7.23,1.56.47,2.6.72,1.93.5,3.58,1,4.95,1.5s2.5,1.07,3.37,1.71c.87.64,1.52,1.38,1.93,2.22.41.84.62,1.85.62,3.02,0,2.75-1.02,4.91-3.05,6.5-2.04,1.59-4.8,2.38-8.3,2.38Z"/>
        <path class="cls-2" d="m612.37,663.32v-7.71h5.89v7.71h-5.89Z"/>
        <path class="cls-2" d="m624.41,663.32v-7.71h5.89v7.71h-5.89Z"/>
        <path class="cls-2" d="m636.45,663.32v-7.71h5.89v7.71h-5.89Z"/>
      </g>
      <g>
        <path class="cls-2" d="m485.06,1301.37v6.48h-26.38v-37.99h25.9v6.48h-18.52v9.15h16v5.99h-16v9.9h19Z"/>
        <path class="cls-2" d="m490.84,1307.85v-37.99h16.8c1.75,0,3.36.37,4.84,1.1,1.48.73,2.76,1.69,3.83,2.89,1.07,1.2,1.91,2.55,2.52,4.07.61,1.52.91,3.04.91,4.58,0,2.46-.62,4.7-1.85,6.72-1.23,2.02-2.9,3.47-5,4.36l8.67,14.29h-8.29l-7.76-12.74h-7.28v12.74h-7.38Zm7.38-19.21h9.26c.68,0,1.31-.16,1.9-.48s1.1-.76,1.53-1.31c.43-.55.77-1.2,1.01-1.95.25-.75.37-1.55.37-2.41s-.14-1.71-.43-2.46-.67-1.4-1.15-1.96c-.48-.55-1.03-.98-1.66-1.28-.62-.3-1.26-.45-1.9-.45h-8.94v12.31h0Z"/>
        <path class="cls-2" d="m526.43,1307.85v-37.99h16.8c1.75,0,3.36.37,4.84,1.1,1.48.73,2.76,1.69,3.83,2.89,1.07,1.2,1.91,2.55,2.52,4.07.61,1.52.91,3.04.91,4.58,0,2.46-.62,4.7-1.85,6.72s-2.9,3.47-5,4.36l8.67,14.29h-8.29l-7.76-12.74h-7.28v12.74h-7.38Zm7.38-19.21h9.26c.68,0,1.31-.16,1.9-.48s1.1-.76,1.53-1.31c.43-.55.77-1.2,1.01-1.95.25-.75.37-1.55.37-2.41s-.14-1.71-.43-2.46-.67-1.4-1.15-1.96c-.48-.55-1.03-.98-1.66-1.28-.63-.3-1.26-.45-1.9-.45h-8.94v12.31h0Z"/>
        <path class="cls-2" d="m578.23,1308.12c-2.78,0-5.31-.54-7.57-1.63-2.27-1.09-4.21-2.53-5.83-4.34-1.62-1.8-2.88-3.86-3.77-6.18-.89-2.32-1.34-4.69-1.34-7.12s.47-4.96,1.42-7.28c.95-2.32,2.25-4.37,3.9-6.15,1.66-1.78,3.63-3.2,5.92-4.26,2.28-1.05,4.76-1.58,7.44-1.58s5.25.56,7.52,1.69c2.27,1.12,4.2,2.6,5.8,4.41,1.61,1.82,2.85,3.89,3.75,6.21s1.34,4.67,1.34,7.06c0,2.53-.46,4.95-1.39,7.25-.93,2.3-2.21,4.34-3.85,6.1-1.64,1.77-3.6,3.18-5.88,4.23-2.29,1.06-4.77,1.58-7.44,1.58Zm-11.02-19.26c0,1.64.25,3.23.75,4.76.5,1.53,1.22,2.89,2.17,4.07.95,1.18,2.11,2.12,3.48,2.84,1.37.71,2.93,1.07,4.68,1.07s3.36-.37,4.73-1.1c1.37-.73,2.53-1.7,3.48-2.92.94-1.21,1.66-2.58,2.14-4.09.48-1.52.72-3.06.72-4.63s-.26-3.23-.77-4.76c-.52-1.53-1.25-2.89-2.19-4.07-.95-1.18-2.1-2.11-3.48-2.81-1.37-.7-2.92-1.04-4.63-1.04s-3.37.37-4.76,1.1c-1.39.73-2.55,1.69-3.48,2.89-.93,1.2-1.63,2.55-2.11,4.07-.48,1.52-.72,3.06-.72,4.63Z"/>
        <path class="cls-2" d="m602.47,1307.85v-37.99h16.8c1.75,0,3.36.37,4.84,1.1,1.48.73,2.76,1.69,3.83,2.89,1.07,1.2,1.91,2.55,2.52,4.07.61,1.52.91,3.04.91,4.58,0,2.46-.62,4.7-1.85,6.72-1.23,2.02-2.9,3.47-5,4.36l8.67,14.29h-8.29l-7.76-12.74h-7.28v12.74h-7.39Zm7.38-19.21h9.26c.68,0,1.31-.16,1.9-.48.59-.32,1.1-.76,1.52-1.31.43-.55.77-1.2,1.02-1.95s.37-1.55.37-2.41-.14-1.71-.43-2.46-.67-1.4-1.15-1.96c-.48-.55-1.03-.98-1.66-1.28-.62-.3-1.26-.45-1.9-.45h-8.94v12.31h0Z"/>
      </g>
    </g>
  </g>
  <g id="Speech_bubble" data-name="Speech bubble">
    <g>
      <g>
        <path class="cls-2" d="m845.6,705.63c-4.06,38.79-38.81,66.96-77.6,62.91-15.68-1.64-29.61-8.29-40.4-18.23l-35.33,5.19,17.68-30.55c-4.29-10.44-6.1-22.05-4.85-34.01,4.06-38.79,38.81-66.96,77.6-62.91,38.79,4.06,66.96,38.81,62.91,77.6Z"/>
        <path class="cls-11" d="m845.6,705.63c-1.48,12.89-6.19,25.53-14.26,35.8-1.85,2.69-4.24,4.94-6.4,7.37-2.45,2.14-4.74,4.48-7.45,6.31-5.17,3.98-10.97,7.1-17.04,9.49-6.04,2.54-12.54,3.75-19.02,4.53-3.27.18-6.54.47-9.81.19-3.28-.07-6.54-.42-9.78-1.02-12.93-2.34-25.17-8.39-34.94-17.25l.83.26-35.3,5.42-2.56.39,1.3-2.26,17.58-30.61-.08,1.21c-8.56-20.16-6.63-44.17,4.35-62.95,5.47-9.41,13.11-17.51,22.12-23.55,9.01-6.06,19.45-9.86,30.14-11.31,10.7-1.42,21.72-.45,31.94,2.95,10.21,3.44,19.57,9.22,27.24,16.7,15.6,14.82,23.44,37.06,21.14,58.33Zm0,0c2.15-21.29-5.85-43.39-21.44-58.01-7.75-7.31-17.12-12.86-27.24-16.07-10.13-3.17-20.97-3.93-31.41-2.35-10.43,1.6-20.53,5.49-29.17,11.52-8.62,6.05-15.88,13.96-21.13,23.05-5.35,9.07-8.13,19.46-8.97,29.89-.66,10.46,1.05,21.05,4.97,30.77l.26.63-.34.58-17.78,30.49-1.26-1.86,35.37-4.95.49-.07.35.33c9.35,8.78,21.18,14.9,33.82,17.42,3.16.64,6.36,1.04,9.58,1.16,3.22.34,6.44.1,9.66-.01,6.4-.66,12.84-1.74,18.87-4.15,6.05-2.26,11.89-5.23,17.04-9.18,2.71-1.8,5-4.12,7.46-6.23,2.17-2.41,4.56-4.63,6.43-7.3,8.1-10.18,12.9-22.76,14.46-35.64Z"/>
      </g>
      <path class="cls-11" d="m730.15,687.23c.9,2.19,2.21,4.15,3.75,5.93-.23,4.84,3.15,9.31,6.48,12.47,3.92,3.71,8.49,6.68,13.36,8.99,8.04,3.82,16.78,6.04,25.56,7.55-.49,6.95-3.05,13.84-5.61,20.31-.06.16.2.24.26.08,2.59-6.4,5.36-13.28,6.17-20.24,1.73.29,3.46.56,5.19.8,2.65.37,5.37.66,8.13.81,4.74.56,9.56.87,14.3.66,5.55-.25,11.19-1.57,15.44-5.35,4.06-3.62,5.63-8.79,4.43-14.08-.52-2.27-1.42-4.44-2.54-6.51-.67-1.46-1.44-2.86-2.28-4.15-2.85-4.39-6.66-8.05-10.83-11.17-1.1-.82-2.23-1.62-3.38-2.38-.15-.14-.3-.3-.45-.44-4.09-3.86-8.92-6.86-13.95-9.33-10.59-5.18-22.3-8.01-34.08-8.29-5.93-.14-11.91.35-17.72,1.54-5.1,1.04-10.11,3.13-12.42,8.12-1.64,3.54-1.74,7.56-.74,11.29.17,1.13.47,2.27.93,3.38Zm59.11,34.2c-2.99-.43-5.98-.97-8.95-1.63.02-.36.03-.72.04-1.08.67.1,1.34.19,2.01.26.6.06,1.21.1,1.84.12,5.55.92,11.18,1.3,16.8,1.05,5.01-.22,10.01-.95,14.88-2.19-7.01,3.8-15.95,4.29-23.61,3.74-1-.07-2-.17-3-.28Zm-18.18-51.22c1.56.3,3.11.63,4.65.99-4.05.06-8.07.66-11.84,1.98-4.12,1.43-8.06,3.83-10.73,7.34-2.09.59-4.17,1.38-6.04,2.48-.44.04-.89.07-1.33.14-1.6.24-3.28.66-4.86,1.31-.01-.21-.06-.41-.06-.63-.02-4.91,3.9-8.21,8.01-10.11,4.55-2.1,9.78-3.06,14.76-3.43,2.48-.18,4.96-.19,7.44-.06Zm-28.8,22.22c.47.63.96,1.24,1.49,1.81-.51.42-.98.9-1.38,1.42-.19-1.06-.25-2.15-.1-3.23Zm37.08,26.13c.01.34,0,.68.01,1.03-4.19-.96-8.32-2.16-12.34-3.62,2.52.63,5.05,1.19,7.59,1.69,1.57.31,3.15.63,4.73.9Zm-1.16-6.78c-10.73-2.18-21.31-5.83-30.89-11.12-1.24-.68-2.48-1.41-3.69-2.19.32-.99.99-1.89,1.84-2.57,4.14,3.79,9.28,6.5,14.39,8.72,5.5,2.38,11.24,4.13,16.96,5.9.38.12.69-.02.89-.25.03.08.07.16.1.24.16.42.27.85.4,1.27Zm-29.59-15.66c-.49-.37-.97-.76-1.46-1.18,2.06-.8,4.47-.59,6.59-.17,4.97,1,10.23,2.44,14.69,4.9,3.78,2.09,6.74,5.17,8.58,9.01-9.87-3.05-20.07-6.25-28.41-12.56Zm30.16,17.86c.13.62.24,1.23.33,1.85-.04,0-.07-.01-.1-.02-.78-.15-1.55-.32-2.33-.48-1.09-.29-2.18-.59-3.25-.92-5.53-1.69-10.88-3.94-15.98-6.64,5.75,2.3,11.68,4.15,17.72,5.49,1.2.27,2.41.5,3.62.73Zm1.28.24c3.28.58,6.57,1.01,9.89,1.31-1.38.73-3.01.97-4.55,1-1.73.03-3.44-.19-5.14-.49-.05-.61-.11-1.21-.2-1.82Zm-22.98-4.26c-.26-.11-.53-.2-.79-.31-2.32-.99-4.58-2.16-6.71-3.51-.62-.39-1.29-.8-1.96-1.24-.3-.31-.61-.62-.9-.95-.18-.2-.34-.42-.52-.64,3.47,2.45,7.1,4.67,10.88,6.64Zm-14.15-19.84c.84-2.07,2.32-3.7,4.13-4.95,1.59-.17,3.2-.17,4.81-.06.33,1.05,1.1,2.01,2.18,2.87,2.16,1.72,4.48,3.28,6.85,4.7,8.65,5.22,18.39,8.58,28.4,9.94,1.55,1.97,2.79,4.16,3.3,6.52.34,1.59.18,3.27-.65,4.61-4.13-.31-8.24-.89-12.3-1.67-.15-.63-.32-1.26-.52-1.89-1.62-5.05-4.89-9.13-9.44-11.85-4.61-2.76-10.09-4.43-15.31-5.6-2.89-.65-6.06-.93-8.82.37-.06.03-.12.07-.19.1-.91-.95-1.74-1.99-2.44-3.1Zm69.14,9.1c-.8.69-1.8,1.09-2.86,1.34-2.43-4.38-6.47-8.02-10.42-11-8.14-6.15-18.1-9.83-28.26-10.64-4.61-.36-9.27-.08-13.81.79.13-.12.26-.22.37-.32,1.64-1.45,3.54-2.58,5.53-3.46,7.71-3.38,16.84-3.09,25.02-1.28.2.07.4.13.61.21,8.42,3.04,16.49,7.28,23.47,12.93.08.13.17.26.25.4,1.74,3.08,3.27,8.29.11,11.02Zm-57.49-17.27c4-1.06,8.17-1.52,12.29-1.47,9.4.11,18.74,2.83,26.76,7.74,4.05,2.48,7.75,5.53,10.92,9.07.91,1.01,1.88,2.25,2.69,3.59-.83.09-1.64.14-2.4.2-2.65.21-5.31.28-7.97.19-2.02-.06-4.04-.24-6.05-.48-.06-.07-.11-.14-.17-.21-6.77-8.17-17.03-12.49-26.98-15.36-3.18-.92-6.45-1.71-9.76-2.1.15-.4.38-.79.66-1.18Zm2.25,3.82c5,.98,9.94,2.52,14.66,4.44,4.52,1.84,8.92,4.2,12.7,7.31,1.01.83,2.03,1.76,3.01,2.75-6.99-1.18-13.82-3.37-20.15-6.54-2.27-1.13-4.48-2.39-6.61-3.76-1.17-.75-2.32-1.54-3.44-2.35-.92-.67-2.03-1.36-2.75-2.28.88.12,1.74.26,2.59.42Zm50.74,24.97c-2.68,3.01-7.47,3.33-11.22,3.23-.54-.01-1.09-.06-1.63-.08,1.49-3.62-.09-7.64-2.26-10.9.01,0,.02,0,.03,0,5.13.47,10.6.58,15.73-.29,1.21,2.7,1.5,5.62-.64,8.03Zm-65.69-22.6c-.21-.48-.39-.97-.53-1.48.73-.33,1.48-.61,2.25-.83-.26.28-.53.55-.76.85-.37.47-.67.96-.95,1.46Zm79.14,26.05c-1.18.55-2.49.89-3.71,1.24-4.74,1.35-9.61,2.2-14.53,2.53-3.92.26-7.85.21-11.75-.13.96-.49,1.81-1.16,2.51-2.03.06,0,.12.01.18.01,4.41.25,9.48.33,13.34-2.19,1.88-1.23,3.29-3.08,3.76-5.31.42-2.04.03-4.1-.75-6,1.98-.54,3.8-1.6,4.8-3.46.98-1.82,1.11-3.91.83-5.92-.11-.74-.28-1.45-.49-2.15,3.12,2.84,6.17,6.03,8.12,9.71,1.22,2.32,1.91,4.98,1.32,7.58-.5,2.24-1.75,4.21-3.33,5.84-.09.1-.19.18-.29.28Zm-81.09-18.35c-1.31-1.16-2.56-2.39-3.71-3.69.41-2,1.76-3.54,3.44-4.61.32.98.77,1.93,1.29,2.85-.59,1.98-.61,4.07-.19,6.11-.28-.21-.56-.43-.83-.65Zm-8.05-10.44c-.88-2.71-.97-5.61.32-8.36,2-4.25,6.28-7.02,10.71-8.18,5.41-1.42,11.14-.92,16.64-.35.29.03.57.07.86.1-4.2.55-8.31,1.61-12.12,3.32-4.32,1.93-8.38,5.27-9.14,10.19-.17,1.08-.13,2.14.02,3.18-2.01,1.13-3.69,2.71-4.58,4.81-1.1-1.49-2.02-3.06-2.71-4.72Zm63.32-11.52c-4.6-1.89-9.36-3.38-14.16-4.35-2.75-.55-5.59-.96-8.47-1.18-3.06-.62-6.13-1.14-9.19-1.54-10.38-1.37-23.69-2.89-31.16,6.22-.25.3-.45.62-.67.93.39-.97.89-1.9,1.54-2.73,1.58-2,3.89-3.23,6.27-4,5.12-1.66,10.77-2.18,16.12-2.36,10.89-.37,21.82,1.49,31.97,5.46,2.64,1.03,5.24,2.21,7.76,3.54Zm15.86,48.45c-.3.04-.61.07-.91.1,2.89-.81,5.67-1.96,8.28-3.57,1.33-.82,2.6-1.8,3.75-2.9.75-.37,1.46-.81,2.08-1.37.12-.11.21-.25.32-.36-.21.41-.45.81-.72,1.21-2.92,4.21-7.89,6.2-12.8,6.89Zm-73.1-23.01c-.67-1.11-1.25-2.34-1.58-3.62,1.33,1.22,2.77,2.33,4.23,3.35.1.08.19.16.29.24.02.02.04.04.07.05-.11,2.19,1.05,4.16,2.68,5.66,2.07,1.91,4.5,3.49,6.96,4.84.9.65,1.82,1.26,2.76,1.84,1.14.7,2.31,1.33,3.5,1.94-2.82-1.22-5.57-2.61-8.16-4.27-4.06-2.6-8.23-5.85-10.74-10.03Z"/>
    </g>
  </g>
</svg>