<?xml version="1.0" encoding="UTF-8"?>
<svg id="Capa_1" data-name="Capa 1" xmlns="http://www.w3.org/2000/svg" viewBox="0 0 2160 2160">
  <defs>
    <style>
      .cls-1 {
        fill: #febf48;
      }

      .cls-2 {
        fill: #890926;
      }

      .cls-3 {
        fill: #d13320;
      }

      .cls-4 {
        fill: #b4cdbf;
      }

      .cls-5 {
        fill: #f9fbf9;
      }

      .cls-6 {
        fill: #920924;
      }

      .cls-7 {
        fill: #fefdf4;
      }

      .cls-8 {
        fill: #a10726;
      }

      .cls-9 {
        fill: #101423;
      }

      .cls-10 {
        fill: #fcfef1;
      }

      .cls-11 {
        fill: #fdbe4f;
      }

      .cls-12 {
        fill: #840825;
      }

      .cls-13 {
        fill: #fc6514;
      }

      .cls-14 {
        fill: #feb445;
      }

      .cls-15 {
        fill: #fbb540;
      }

      .cls-16 {
        fill: #c9e0d7;
      }

      .cls-17 {
        fill: #880f23;
      }

      .cls-18 {
        fill: #fdfef7;
      }

      .cls-19 {
        fill: #ff6318;
      }

      .cls-20 {
        fill: #fd9728;
      }

      .cls-21 {
        fill: #ff9a2b;
      }

      .cls-22 {
        fill: #fe9027;
      }

      .cls-23 {
        fill: #bb182e;
      }

      .cls-24 {
        fill: #fe911d;
      }

      .cls-25 {
        fill: #f4391d;
      }

      .cls-26 {
        fill: #c72530;
      }

      .cls-27 {
        fill: #bb162f;
      }

      .cls-28 {
        fill: #f12931;
      }

      .cls-29 {
        fill: #b2102c;
      }

      .cls-30 {
        fill: #eaf1e4;
      }

      .cls-31 {
        fill: #e81e2e;
      }

      .cls-32 {
        fill: #99beb2;
      }

      .cls-33 {
        fill: #fc2e31;
      }

      .cls-34 {
        fill: #121524;
      }

      .cls-35 {
        fill: #c2142c;
      }

      .cls-36 {
        fill: #f34114;
      }

      .cls-37 {
        fill: #f95b16;
      }
    </style>
  </defs>
  <polygon class="cls-24" points="685.79 182 917.14 264.63 923.34 438.14 685.79 182"/>
  <polygon class="cls-23" points="917.14 264.63 991.51 365.84 923.34 438.14 917.14 264.63"/>
  <polygon class="cls-28" points="1090.66 361.71 991.51 365.84 1094.79 526.96 1090.66 361.71"/>
  <polygon class="cls-15" points="1189.81 367.91 1090.66 361.71 1094.79 526.96 1189.81 367.91"/>
  <polygon class="cls-13" points="1264 264.63 1189.81 367.91 1270.37 448.47 1264 264.63"/>
  <polygon class="cls-14" points="1499.65 188.2 1264 264.63 1270.37 448.47 1499.65 188.2"/>
  <polygon class="cls-7" points="1499.65 372.84 1398.44 452.6 1442.86 252.67 1499.65 188.2 1499.65 372.84"/>
  <polygon class="cls-26" points="1489.32 504.24 1499.65 372.84 1398.44 452.6 1489.32 504.24"/>
  <polygon class="cls-6" points="1417.03 597.19 1489.32 504.24 1398.44 452.6 1340.6 520.76 1417.03 597.19"/>
  <polygon class="cls-34" points="1270.37 448.47 1340.6 520.76 1398.44 452.6 1442.86 252.67 1270.37 448.47"/>
  <polygon class="cls-9" points="782.88 456.73 843.72 520.76 923.34 438.14 748.3 249.4 782.88 456.73"/>
  <polygon class="cls-27" points="762.22 603.39 782.88 456.73 685.79 504.24 762.22 603.39"/>
  <polygon class="cls-17" points="843.72 520.76 762.22 603.39 782.88 456.73 843.72 520.76"/>
  <polygon class="cls-18" points="748.3 249.4 782.88 456.73 685.79 368.66 685.79 182 748.3 249.4"/>
  <polygon class="cls-3" points="685.79 504.24 782.88 456.73 685.79 368.66 685.79 504.24"/>
  <path class="cls-33" d="m1094.79,526.96c-27.2,46.48-54.39,92.95-81.59,139.43-13.77-9.64-27.54-19.28-41.31-28.92-42.72-38.9-85.44-77.81-128.16-116.71l147.79-154.92,103.28,161.12Z"/>
  <path class="cls-21" d="m1094.79,734.63c27.89-22.75,55.77-45.49,83.66-68.24-27.89-46.48-55.77-92.95-83.66-139.43v207.67Z"/>
  <path class="cls-31" d="m1013.2,666.39c27.2,22.75,54.39,45.49,81.59,68.24v-207.67c-27.2,46.48-54.39,92.95-81.59,139.43Z"/>
  <path class="cls-11" d="m1189.81,367.91l150.79,152.86-118.38,115.27c-14.59,10.12-29.18,20.24-43.77,30.36-27.89-46.48-55.77-92.95-83.66-139.43l95.02-159.05Z"/>
  <polygon class="cls-36" points="1586.41 768.64 1340.6 520.76 1222.22 636.03 1377.78 704.6 1586.41 768.64"/>
  <path class="cls-37" d="m953.29,866.76c47.51-44.76,95.02-89.51,142.53-134.27v187.9l-64.03-7.16v28.92c-26.16-25.13-52.33-50.26-78.49-75.4Z"/>
  <path class="cls-1" d="m1152.63,913.23c-19.28,2.39-38.56,4.77-57.84,7.16v-185.77l127.43,138.98c-23.2,22.85-46.4,45.7-69.59,68.55v-28.92Z"/>
  <path class="cls-9" d="m1031.79,900.84l64.03,7.16c19.28-2.39,38.56-4.77,57.84-7.16v55.06l-57.84,34.54-64.03-36.49v-53.11Z"/>
  <path class="cls-36" d="m1377.78,704.6l-155.56,169-127.43-138.98c27.89-22.75,55.77-45.49,83.66-68.24,5.4,25.82,10.8,51.64,16.2,77.46,20.76-5.85,41.53-11.71,62.29-17.56,40.28-7.23,80.56-14.46,120.84-21.69Z"/>
  <polygon class="cls-7" points="1586.41 768.64 1377.78 704.6 1222.22 873.6 1586.41 768.64"/>
  <polygon class="cls-4" points="1586.41 768.64 1333.37 978.3 1222.22 873.6 1586.41 768.64"/>
  <path class="cls-36" d="m1442.86,887.58c-12.74,29.89-25.48,59.79-38.22,89.68,12.74,16.87,25.48,33.74,38.22,50.61h-65.08l-44.41-49.58,109.49-90.72Z"/>
  <path class="cls-36" d="m732.27,882.42c12.05,29.55,24.1,59.1,36.15,88.65-12.05,17.21-24.1,34.43-36.15,51.64h65.08c15.83-15.84,31.67-31.67,47.5-47.51-37.53-30.93-75.05-61.86-112.58-92.78Z"/>
  <path class="cls-4" d="m588.5,763.35c85.45,70.62,170.9,141.24,256.34,211.85,36.84-36.15,73.67-72.3,110.51-108.45-122.29-34.47-244.57-68.94-366.86-103.41Z"/>
  <polygon class="cls-32" points="951.66 1032.94 1093.76 1197.26 953.29 1197.26 951.66 1032.94"/>
  <path class="cls-16" d="m955.36,866.76c-53.02,51.99-106.03,103.97-159.05,155.96l156.98,173.97c.69-109.97,1.38-219.95,2.07-329.92Z"/>
  <path class="cls-18" d="m588.5,763.35l365.82,104.69c-46.48-54.82-92.95-109.64-139.43-164.46-75.46,19.93-150.93,39.85-226.39,59.78Z"/>
  <polygon class="cls-5" points="1030.75 942.15 1030.75 966.35 1094.79 1002.83 1152.63 968.3 1152.63 942.15 1222.22 873.6 1222.22 978.3 1152.63 1047.12 1030.75 1047.12 954.33 978.3 954.33 868.03 1030.75 942.15"/>
  <polygon class="cls-30" points="796.31 1022.71 796.31 1426.17 953.29 1196.68 796.31 1022.71"/>
  <polygon class="cls-19" points="797.35 1022.71 797.35 1426.17 732.27 1022.71 797.35 1022.71"/>
  <polygon class="cls-19" points="1444.91 1067.12 1529.6 1259.23 1329.24 1513.3 1228.02 1426.54 1374.68 1228.24 1444.91 1067.12"/>
  <polygon class="cls-20" points="897.52 1422.41 1143.33 1325.33 1374.68 1228.24 1228.02 1426.54 897.52 1422.41"/>
  <polygon class="cls-25" points="1081.36 1606.25 1228.02 1426.54 1329.24 1513.3 1081.36 1606.25"/>
  <path class="cls-22" d="m897.52,1422.41l330.5,4.13-146.66,179.71c-29.26-29.26-58.53-58.53-87.79-87.79-32.02-32.02-64.03-64.03-96.05-96.05Z"/>
  <polygon class="cls-35" points="1529.6 1259.23 1508.95 1474.05 1424.26 1600.06 1329.24 1513.3 1529.6 1259.23"/>
  <path class="cls-2" d="m1328.21,1512.27c31.33,29.26,62.66,58.53,93.99,87.79-24.44,23.75-48.89,47.51-73.33,71.26-6.89-53.02-13.77-106.04-20.66-159.05Z"/>
  <path class="cls-12" d="m1348.86,1671.32c-58.87,28.96-117.74,57.92-176.61,86.88l156.99-244.9c6.54,52.67,13.08,105.35,19.62,158.02Z"/>
  <polygon class="cls-8" points="1081.36 1606.25 1172.25 1758.2 1329.24 1513.3 1081.36 1606.25"/>
  <path class="cls-16" d="m999.77,1524.66c-44.76,72.3-89.51,144.59-134.27,216.89,71.95-45.1,143.91-90.2,215.86-135.3-27.2-27.2-54.39-54.39-81.59-81.59Z"/>
  <path class="cls-10" d="m897.52,1422.41l-146.24,228.84-8.68,134.71,55.77,190.04c22.38-78.15,44.76-156.3,67.13-234.45,44.76-72.3,89.51-144.59,134.27-216.89-34.08-34.08-68.17-68.17-102.25-102.25Z"/>
  <path class="cls-32" d="m988.41,1804.55l-190.04,171.45c22.38-78.15,44.76-156.3,67.13-234.45,71.95-45.1,143.91-90.2,215.86-135.3l90.89,151.95-183.84,46.35Z"/>
  <path class="cls-29" d="m843.72,520.76c-85,80.56-170.01,161.12-255.01,241.68,76.77-19.62,153.55-39.25,230.32-58.87,50.95-22.03,101.9-44.07,152.86-66.1-42.72-38.9-85.44-77.81-128.16-116.71Z"/>
  <path class="cls-36" d="m1013.2,666.39c-5.51,25.48-11.02,50.95-16.53,76.43-19.97-6.2-39.94-12.39-59.9-18.59-40.62-6.89-81.25-13.77-121.87-20.66,46.48,54.82,92.95,109.64,139.43,164.46l140.46-133.41c-27.2-22.75-54.39-45.49-81.59-68.24Z"/>
  <path class="cls-9" d="m1014.23,666.39c-14.59-10.12-29.18-20.24-43.77-30.36l-155.56,68.57c40.28,7.23,80.56,14.46,120.84,21.69,20.76,5.85,41.53,11.71,62.29,17.56,5.4-25.82,10.8-51.64,16.2-77.46Z"/>
  <path class="cls-9" d="m1178.45,666.39c14.59-10.12,29.18-20.24,43.77-30.36l155.56,68.57c-40.28,7.23-80.56,14.46-120.84,21.69-20.76,5.85-41.53,11.71-62.29,17.56-5.4-25.82-10.8-51.64-16.2-77.46Z"/>
  <polygon class="cls-4" points="954.33 1036.02 1024.56 1117.24 953.29 1196.68 954.33 1036.02"/>
</svg>